<?xml version="1.0" standalone="no"?><!DOCTYPE svg PUBLIC "-//W3C//DTD SVG 1.1//EN" "http://www.w3.org/Graphics/SVG/1.1/DTD/svg11.dtd"><svg t="1571017583006" class="icon" viewBox="0 0 1024 1024" version="1.1" xmlns="http://www.w3.org/2000/svg" p-id="2032" xmlns:xlink="http://www.w3.org/1999/xlink" width="128" height="128"><defs><style type="text/css"></style></defs><path d="M494.888 301.511l-311.76 0c-18.836 0-34.12-14.784-34.12-33 0-18.215 15.285-33 34.12-33l311.76 0c18.868 0 34.119 14.784 34.119 33C529.007 286.729 513.72 301.511 494.888 301.511z" p-id="2033"></path><path d="M841.301 547.559 176.714 547.559c-15.295 0-27.705-14.751-27.705-32.998 0-18.246 12.412-32.997 27.705-32.997l664.587 0c15.322 0 27.706 14.784 27.706 32.997C869.007 532.773 856.596 547.559 841.301 547.559z" p-id="2034"></path><path d="M842.038 788.57 177.454 788.57c-15.294 0-27.705-14.752-27.705-33 0-18.25 12.412-33 27.705-33l664.584 0c15.321 0 27.705 14.75 27.705 33C869.743 773.818 857.332 788.57 842.038 788.57z" p-id="2035"></path><path d="M873.317 1016.762 151.088 1016.762c-65.554 0-118.885-52.199-118.885-116.362l0-776.82c0-64.163 53.332-116.364 118.885-116.364l722.228 0c65.553 0 118.886 52.201 118.886 116.364l0 776.82C992.202 964.563 938.869 1016.762 873.317 1016.762zM151.088 59.429c-39.328 0-65.662 25.656-65.662 64.149l0 776.82c0 38.492 26.334 64.144 65.662 64.144l722.228 0.005c39.328 0 65.663-25.656 65.663-64.148l0-776.82c0-38.493-26.335-64.149-65.663-64.149L151.088 59.43z" p-id="2036"></path></svg>