<?xml version="1.0" standalone="no"?><!DOCTYPE svg PUBLIC "-//W3C//DTD SVG 1.1//EN" "http://www.w3.org/Graphics/SVG/1.1/DTD/svg11.dtd"><svg t="1574147659746" class="icon" viewBox="0 0 1077 1024" version="1.1" xmlns="http://www.w3.org/2000/svg" p-id="10800" width="134.625" height="128" xmlns:xlink="http://www.w3.org/1999/xlink"><defs><style type="text/css"></style></defs><path d="M988.429474 13.042526H88.387368C41.040842 13.042526 2.533053 48.235789 2.533053 95.582316v826.933895A86.312421 86.312421 0 0 0 88.387368 1008.64h907.156211c47.157895 0 82.324211-38.750316 82.32421-86.123789V95.582316C1077.894737 48.208842 1035.587368 13.042526 988.429474 13.042526z m-639.59579 122.341053a131.718737 131.718737 0 0 1 131.772632 131.772632 131.799579 131.799579 0 0 1-263.545263 0 131.988211 131.988211 0 0 1 131.772631-131.772632z m-202.105263 750.08c-9.242947 0-18.728421-3.152842-26.300632-9.674105a40.636632 40.636632 0 0 1-4.419368-57.263158l186.098526-280.629895a40.528842 40.528842 0 0 1 54.945685-6.117053l164.217263 122.125474 294.534737-334.524631c13.877895-17.488842 87.767579-99.813053 131.152842-6.548211 0-0.188632 0.188632 123.580632 0.188631 249.909895v322.721684c-0.619789-0.404211-799.986526 0-800.417684 0z" p-id="10801" fill="#BFCBD9"></path></svg>