<?xml version="1.0" standalone="no"?><!DOCTYPE svg PUBLIC "-//W3C//DTD SVG 1.1//EN" "http://www.w3.org/Graphics/SVG/1.1/DTD/svg11.dtd"><svg t="1574147038802" class="icon" viewBox="0 0 1024 1024" version="1.1" xmlns="http://www.w3.org/2000/svg" p-id="4476" xmlns:xlink="http://www.w3.org/1999/xlink" width="32" height="32"><defs><style type="text/css"></style></defs><path d="M656.270824 93.889367c-1.186012-22.724561-28.30158-37.56864-51.093678-16.029068-23.705911 22.403243-268.153296 241.441934-268.153296 241.441934L171.383322 319.302233c-55.330166 0-102.187357 44.853557-102.187357 100.183723L69.195965 610.333586c0 55.330166 46.857191 100.183723 102.187357 100.183723l168.642908 0 266.152732 241.942331c25.77606 20.537755 55.601342 13.252839 50.091862-47.086411C656.270824 905.373229 656.307663 94.596472 656.270824 93.889367zM600.168062 872.313276 357.724311 655.91676c0 0-183.335539-0.668219-182.333722-1.001817-37.068244-0.333598-51.093678-28.05087-51.093678-60.110029 0.333598 0-0.333598-166.971849 0-168.308287 1.001817-32.392758 19.034519-51.093678 61.111846-50.091862-0.333598-0.333598 171.313737 0 171.313737 0l243.445568-218.399125L600.168062 872.313276zM927.767262 486.60768 768.476349 486.60768c-15.492856 0-28.05087 12.559037-28.05087 28.05087 0 15.491833 12.559037 28.05087 28.05087 28.05087l159.290913 0c15.491833 0 28.05087-12.559037 28.05087-28.05087C955.818131 499.166717 943.259094 486.60768 927.767262 486.60768zM788.596596 338.350055 901.232932 225.713718c10.954493-10.954493 10.954493-28.716019 0-39.670511-10.954493-10.954493-28.716019-10.954493-39.670511 0L748.926084 298.679543c-10.954493 10.954493-10.954493 28.716019 0 39.670511C759.880577 349.304548 777.642103 349.304548 788.596596 338.350055zM788.16783 691.166589c-10.927887-10.927887-28.646434-10.927887-39.575344 0-10.927887 10.927887-10.927887 28.646434 0 39.574321l112.364137 112.364137c10.927887 10.927887 28.646434 10.927887 39.574321 0 10.92891-10.92891 10.92891-28.646434 0-39.575344L788.16783 691.166589z" p-id="4477"></path></svg>