<?xml version="1.0" standalone="no"?><!DOCTYPE svg PUBLIC "-//W3C//DTD SVG 1.1//EN" "http://www.w3.org/Graphics/SVG/1.1/DTD/svg11.dtd"><svg t="1574147059709" class="icon" viewBox="0 0 1024 1024" version="1.1" xmlns="http://www.w3.org/2000/svg" p-id="5214" xmlns:xlink="http://www.w3.org/1999/xlink" width="32" height="32"><defs><style type="text/css"></style></defs><path d="M511.99826313 121.22362137C296.16760747 121.22362137 121.20885801 296.17976553 121.20885801 512c0 215.82197135 174.96048633 390.7755102 390.78940512 390.7755102 215.82978724 0 390.79201043-174.95353886 390.79201043-390.7755102 0-215.82110291-174.96309162-390.77637863-390.79201043-390.77637863z m0 746.02778984C315.78723404 867.25141121 156.73295701 708.18758142 156.73295701 512c0-196.22145028 159.05427703-355.25054277 355.26530612-355.25054277S867.26270082 315.78028658 867.26270082 512c0 196.18497612-159.05427703 355.25141121-355.26443769 355.25141121z m195.39643944-355.24967434H529.7594442V281.0881459c0-9.81676075-7.96005211-17.7620495-17.76204949-17.76204951-9.80112896 0-17.76291793 7.94355189-17.76291794 17.76204951v248.6739036c0 9.80112896 7.96352583 17.7620495 17.76291794 17.7620495h195.39643942c9.80026053 0 17.76291793-7.96178897 17.76291793-17.7620495-0.00173687-9.81502388-7.96352583-17.76118107-17.76291793-17.76118107z" p-id="5215"></path></svg>