<?xml version="1.0" standalone="no"?><!DOCTYPE svg PUBLIC "-//W3C//DTD SVG 1.1//EN" "http://www.w3.org/Graphics/SVG/1.1/DTD/svg11.dtd"><svg t="1574147938476" class="icon" viewBox="0 0 1024 1024" version="1.1" xmlns="http://www.w3.org/2000/svg" p-id="12274" xmlns:xlink="http://www.w3.org/1999/xlink" width="128" height="128"><defs><style type="text/css"></style></defs><path d="M768 341.333333h170.666667v469.333334a128 128 0 0 1-128 128H170.666667a85.333333 85.333333 0 0 1-85.333334-85.333334V85.333333h682.666667v256z m0 85.333334v384a42.666667 42.666667 0 1 0 85.333333 0V426.666667h-85.333333zM170.666667 170.666667v661.333333a21.333333 21.333333 0 0 0 21.333333 21.333333h490.666667V170.666667H170.666667z m85.333333 362.666666v-85.333333h341.333333v85.333333H256z m0-170.666666v-85.333334h341.333333v85.333334H256z m0 341.333333v-85.333333h234.666667v85.333333H256z" fill="" p-id="12275"></path></svg>